<svg xmlns="http://www.w3.org/2000/svg" width="126.453" height="126.453" viewBox="0 0 126.453 126.453">
  <g id="Icon_ionic-ios-chatbubbles" data-name="Icon ionic-ios-chatbubbles" transform="translate(-3.375 -3.375)">
    <path id="Path_4" data-name="Path 4" d="M103.838,86.238a7.364,7.364,0,0,1,1-3.708,10.234,10.234,0,0,1,.638-.942,49.254,49.254,0,0,0,8.39-27.449c.091-28.026-23.558-50.763-52.8-50.763-25.5,0-46.781,17.357-51.767,40.4a48.849,48.849,0,0,0-1.125,10.4,51.564,51.564,0,0,0,51.979,51.4c4.651,0,10.913-1.4,14.348-2.341s6.839-2.189,7.721-2.523a8.036,8.036,0,0,1,2.827-.517,7.9,7.9,0,0,1,3.07.608l17.235,6.11a4.11,4.11,0,0,0,1.185.3,2.42,2.42,0,0,0,2.432-2.432,3.9,3.9,0,0,0-.152-.821Z" transform="translate(15.959)" fill="#03ccbb"/>
    <path id="Path_5" data-name="Path 5" d="M85.6,76.433c-1.094.3-2.493.638-4.012.973a56.1,56.1,0,0,1-10.335,1.368,51.564,51.564,0,0,1-51.979-51.4,57.47,57.47,0,0,1,.456-6.505c.182-1.307.4-2.614.7-3.891.3-1.368.669-2.736,1.064-4.073L19.06,15.061A45.237,45.237,0,0,0,3.375,49.075,44.732,44.732,0,0,0,10.914,74c.7,1.064,1.094,1.885.973,2.432S8.269,95.279,8.269,95.279A2.438,2.438,0,0,0,9.09,97.62a2.476,2.476,0,0,0,1.55.547,2.18,2.18,0,0,0,.882-.182l17.053-6.718a4.75,4.75,0,0,1,3.648.061,51.16,51.16,0,0,0,18.451,3.648A47.741,47.741,0,0,0,87.18,78.226s.973-1.337,2.1-2.918C88.153,75.7,86.876,76.1,85.6,76.433Z" transform="translate(0 31.661)" fill="#6c89f4"/>
  </g>
</svg>
